<svg xmlns="http://www.w3.org/2000/svg" width="25" height="24" fill="none" viewBox="0 0 25 24">
  <path fill="#1C1C1C" d="M17.344 11h-3.74V7.26c0-.55-.45-1-1-1s-1 .45-1 1V11h-3.74c-.55 0-1 .45-1 1s.45 1 1 1h3.74v3.74c0 .55.45 1 1 1s1-.45 1-1V13h3.74c.55 0 1-.45 1-1s-.45-1-1-1Z"/>
  <path fill="#1C1C1C" d="M12.604.84C6.454.84 1.444 5.85 1.444 12s5.01 11.16 11.16 11.16 11.16-5.01 11.16-11.16S18.754.84 12.604.84Zm0 20.32c-5.05 0-9.16-4.11-9.16-9.16s4.11-9.16 9.16-9.16 9.16 4.11 9.16 9.16-4.11 9.16-9.16 9.16Z"/>
</svg>
