<svg xmlns="http://www.w3.org/2000/svg" width="24" height="24" fill="none" viewBox="0 0 24 24">
  <g clip-path="url(#a)">
    <path fill="currentColor" d="M15.13 7.61H5.77l2.64-2.64A.996.996 0 1 0 7 3.56L2.67 7.88a.99.99 0 0 0-.29.71c0 .27.11.52.29.71l4.32 4.32c.2.2.45.29.71.29.26 0 .51-.1.71-.29a.996.996 0 0 0 0-1.41L5.82 9.62h9.3c2.21 0 4.01 1.8 4.01 4.01s-1.8 4.01-4.01 4.01h-5.01c-.55 0-1 .45-1 1s.45 1 1 1h5.01a6.009 6.009 0 1 0 0-12.02l.01-.01Z"/>
  </g>
  <defs>
    <clipPath id="a">
      <path fill="currentColor" d="M0 0h24v24H0z"/>
    </clipPath>
  </defs>
</svg>
