<svg xmlns="http://www.w3.org/2000/svg" width="24" height="24" fill="none" viewBox="0 0 24 24">
  <g clip-path="url(#a)">
    <path fill="#1C1C1C" d="M12.01 22.73c-5.92 0-10.74-4.82-10.74-10.74S5.78 1.52 11.54 1.27c.44-.01.84.25.99.66.15.41 0 .87-.34 1.14-1.6 1.2-2.52 3.02-2.52 5.01a6.27 6.27 0 0 0 6.26 6.26c1.98 0 3.81-.92 5.01-2.52a1.002 1.002 0 0 1 1.8.65 10.71 10.71 0 0 1-10.72 10.27l-.01-.01ZM8.82 3.85a8.71 8.71 0 0 0-5.55 8.14c0 4.82 3.92 8.74 8.74 8.74 3.7 0 6.86-2.29 8.14-5.56-1.26.75-2.7 1.16-4.22 1.16-4.55 0-8.26-3.71-8.26-8.26 0-1.52.41-2.97 1.16-4.22h-.01Z"/>
  </g>
  <defs>
    <clipPath id="a">
      <path fill="#fff" d="M0 0h24v24H0z"/>
    </clipPath>
  </defs>
</svg>
