<svg xmlns="http://www.w3.org/2000/svg" width="25" height="24" fill="none" viewBox="0 0 25 24">
  <path fill="#1C1C1C" d="M16.582 2.01c-.043-.047-1.574.019-2.906 1.465-1.333 1.445-1.128 3.103-1.098 3.145.03.043 1.9.109 3.094-1.572 1.194-1.682.952-2.99.91-3.038Zm4.142 14.666c-.06-.12-2.906-1.542-2.64-4.277.264-2.736 2.093-3.486 2.122-3.568.028-.081-.747-.987-1.568-1.446a4.614 4.614 0 0 0-1.954-.542c-.135-.004-.603-.12-1.567.145-.635.173-2.066.736-2.46.758-.395.023-1.57-.652-2.834-.831-.809-.156-1.666.164-2.28.41-.612.245-1.777.943-2.592 2.796-.815 1.853-.39 4.788-.084 5.7.305.912.781 2.405 1.591 3.495.72 1.23 1.675 2.084 2.074 2.374.399.29 1.524.482 2.304.084.627-.385 1.76-.607 2.207-.59.446.016 1.326.192 2.228.674.713.246 1.388.143 2.065-.132.676-.276 1.655-1.323 2.797-3.447.434-.988.631-1.521.591-1.603Z"/>
  <path fill="#1C1C1C" d="M16.582 2.01c-.043-.047-1.574.019-2.906 1.465-1.333 1.445-1.128 3.103-1.098 3.145.03.043 1.9.109 3.094-1.572 1.194-1.682.952-2.99.91-3.038Zm4.142 14.666c-.06-.12-2.906-1.542-2.64-4.277.264-2.736 2.093-3.486 2.122-3.568.028-.081-.747-.987-1.568-1.446a4.614 4.614 0 0 0-1.954-.542c-.135-.004-.603-.12-1.567.145-.635.173-2.066.736-2.46.758-.395.023-1.57-.652-2.834-.831-.809-.156-1.666.164-2.28.41-.612.245-1.777.943-2.592 2.796-.815 1.853-.39 4.788-.084 5.7.305.912.781 2.405 1.591 3.495.72 1.23 1.675 2.084 2.074 2.374.399.29 1.524.482 2.304.084.627-.385 1.76-.607 2.207-.59.446.016 1.326.192 2.228.674.713.246 1.388.143 2.065-.132.676-.276 1.655-1.323 2.797-3.447.434-.988.631-1.521.591-1.603Z"/>
</svg>
