<svg xmlns="http://www.w3.org/2000/svg" width="24" height="24" fill="none" viewBox="0 0 24 24">
  <g clip-path="url(#a)">
    <path fill="currentColor" d="M16.85 11.35H7.42c-1.56 0-2.82-1.27-2.82-2.82V4.59c0-1.56 1.27-2.82 2.82-2.82h9.43c1.56 0 2.82 1.27 2.82 2.82v3.94c0 1.56-1.27 2.82-2.82 2.82ZM7.42 3.77c-.45 0-.82.37-.82.82v3.94c0 .45.37.82.82.82h9.43c.45 0 .82-.37.82-.82V4.59c0-.45-.37-.82-.82-.82H7.42Zm10.91 11.04H5.95c-.55 0-1-.45-1-1s.45-1 1-1h12.39c.55 0 1 .45 1 1s-.45 1-1 1h-.01Zm0 6.92H5.95c-.55 0-1-.45-1-1s.45-1 1-1h12.39c.55 0 1 .45 1 1s-.45 1-1 1h-.01Zm-3.23-3.46H5.95c-.55 0-1-.45-1-1s.45-1 1-1h9.16c.55 0 1 .45 1 1s-.45 1-1 1h-.01Z"/>
  </g>
  <defs>
    <clipPath id="a">
      <path fill="currentColor" d="M0 0h24v24H0z"/>
    </clipPath>
  </defs>
</svg>
