<svg xmlns="http://www.w3.org/2000/svg" width="24" height="24" fill="none" viewBox="0 0 24 24">
  <path fill="currentColor" d="M13 3.2V2.03c0-.55-.45-1-1-1s-1 .45-1 1V3.2c-4.1.44-7.3 3.91-7.3 8.12v7.06c0 .55.45 1 1 1h3.5c.12 2 1.77 3.59 3.8 3.59s3.68-1.59 3.8-3.59h3.5c.55 0 1-.45 1-1v-7.06c0-4.21-3.2-7.68-7.3-8.12Zm-1 17.77c-.93 0-1.68-.69-1.8-1.59h3.6c-.12.89-.88 1.59-1.8 1.59Zm6.3-3.59H5.7v-6.06c0-3.4 2.77-6.17 6.17-6.17h.26c3.4 0 6.17 2.77 6.17 6.17v6.06Z"/>
  <path fill="currentColor" d="M14.4 7.13c-.49-.27-1.09-.08-1.36.4-.26.49-.08 1.09.4 1.36.89.49 1.45 1.42 1.45 2.43 0 .55.45 1 1 1s1-.45 1-1c0-1.75-.96-3.36-2.49-4.19Z"/>
</svg>
