<svg xmlns="http://www.w3.org/2000/svg" width="24" height="24" fill="none" viewBox="0 0 24 24">
  <g clip-path="url(#a)">
    <path fill="currentColor" d="M17.42 1.31H6.58C5 1.31 3.71 2.6 3.71 4.18V21.7c0 .35.19.68.49.86a1 1 0 0 0 .99.02L12 18.84l6.81 3.74c.15.08.32.12.48.12.18 0 .35-.05.51-.14.3-.18.49-.51.49-.86V4.17c0-1.58-1.29-2.87-2.87-2.87v.01ZM18.29 20l-5.81-3.19c-.15-.08-.32-.12-.48-.12-.16 0-.33.04-.48.12L5.71 20V4.17c0-.48.39-.87.87-.87h10.85c.48 0 .87.39.87.87V20h-.01Z"/>
  </g>
  <defs>
    <clipPath id="a">
      <path fill="currentColor" d="M0 0h24v24H0z"/>
    </clipPath>
  </defs>
</svg>
