<svg xmlns="http://www.w3.org/2000/svg" width="24" height="24" fill="none" viewBox="0 0 24 24">
  <g clip-path="url(#a)">
    <path fill="currentColor" d="M19.31 18.25h.04c.55 0 1-.45 1-1V2.55c0-.55-.45-1-1-1H6.75c-1.71 0-3.1 1.39-3.1 3.1v14.7c0 1.71 1.39 3.1 3.1 3.1h12.6c.55 0 1-.45 1-1s-.45-1-1-1h-.03c-.07-.25-.13-.62-.13-1.14 0-.52.06-.84.12-1.06ZM5.65 4.65c0-.61.49-1.1 1.1-1.1h11.6v12.7H6.75c-.2 0-.4.02-.6.06-.06.01-.12.04-.18.05-.11.03-.22.05-.32.09V4.65Zm1.1 15.8c-.61 0-1.1-.49-1.1-1.1 0-.61.49-1.1 1.1-1.1h10.52c-.05.31-.08.66-.08 1.06 0 .44.04.81.09 1.14H6.75Z"/>
    <path fill="currentColor" d="M8.72 7.69h5.54c.55 0 1-.45 1-1s-.45-1-1-1H8.72c-.55 0-1 .45-1 1s.45 1 1 1Zm0 3.59h3.59c.55 0 1-.45 1-1s-.45-1-1-1H8.72c-.55 0-1 .45-1 1s.45 1 1 1Z"/>
  </g>
  <defs>
    <clipPath id="a">
      <path fill="currentColor" d="M0 0h24v24H0z"/>
    </clipPath>
  </defs>
</svg>
