<svg xmlns="http://www.w3.org/2000/svg" width="24" height="24" fill="none" viewBox="0 0 24 24">
  <g clip-path="url(#a)">
    <path fill="#1C1C1C" d="M19.4 5.6h-1.91c-.48 0-.88-.39-.88-.88a2.88 2.88 0 0 0-2.88-2.88h-3.49c-1.58 0-2.88 1.29-2.88 2.88 0 .48-.39.88-.88.88H4.57c-1.58 0-2.88 1.29-2.88 2.88v10.41a2.88 2.88 0 0 0 2.88 2.88h14.81a2.88 2.88 0 0 0 2.88-2.88V8.48a2.88 2.88 0 0 0-2.88-2.88h.02Zm.88 13.29c0 .48-.39.88-.88.88H4.6c-.48 0-.88-.39-.88-.88V8.48c0-.48.39-.88.88-.88h1.91a2.88 2.88 0 0 0 2.88-2.88c0-.48.39-.88.88-.88h3.49c.48 0 .88.39.88.88a2.88 2.88 0 0 0 2.88 2.88h1.91c.48 0 .88.39.88.88v10.41h-.03Z"/>
    <path fill="#1C1C1C" d="M12 9.19c-2.48 0-4.5 2.02-4.5 4.5s2.02 4.5 4.5 4.5 4.5-2.02 4.5-4.5-2.02-4.5-4.5-4.5Zm0 6.99a2.5 2.5 0 0 1 0-5 2.5 2.5 0 0 1 0 5Zm-.76-9.2h1.51c.55 0 1-.45 1-1s-.45-1-1-1h-1.51c-.55 0-1 .45-1 1s.45 1 1 1Z"/>
  </g>
  <defs>
    <clipPath id="a">
      <path fill="#fff" d="M0 0h24v24H0z"/>
    </clipPath>
  </defs>
</svg>
