<svg xmlns="http://www.w3.org/2000/svg" width="24" height="24" fill="none" viewBox="0 0 24 24">
  <g clip-path="url(#a)">
    <path fill="#1C1C1C" d="M15.56 18.25h.04c.55 0 1-.45 1-1s-.45-1-1-1H3.89c-.2 0-.4.02-.6.06-.06.01-.12.04-.18.05-.11.03-.22.05-.32.09V4.65c0-.61.49-1.1 1.1-1.1H14.6v4.29c0 .55.45 1 1 1s1-.45 1-1V2.55c0-.55-.45-1-1-1H3.89c-1.71 0-3.1 1.39-3.1 3.1v14.7c0 1.71 1.39 3.1 3.1 3.1H15.6c.55 0 1-.45 1-1s-.45-1-1-1h-.03c-.07-.25-.13-.62-.13-1.14 0-.52.06-.84.12-1.06Zm-11.67 2.2c-.61 0-1.1-.49-1.1-1.1 0-.61.49-1.1 1.1-1.1h9.63c-.05.31-.08.66-.08 1.06 0 .44.04.81.09 1.14H3.89Z"/>
    <path fill="#1C1C1C" d="M11.96 6.69c0-.55-.45-1-1-1h-5.1c-.55 0-1 .45-1 1s.45 1 1 1h5.1c.55 0 1-.45 1-1Zm-6.1 2.59c-.55 0-1 .45-1 1s.45 1 1 1h3.15c.55 0 1-.45 1-1s-.45-1-1-1H5.86Zm17.49 2.22-3.06-3.06a.996.996 0 1 0-1.41 1.41l1.35 1.35h-6.06c-.55 0-1 .45-1 1s.45 1 1 1h6.06l-1.35 1.35a.996.996 0 0 0 .71 1.7c.26 0 .51-.1.71-.29l3.06-3.06a.996.996 0 0 0 0-1.41l-.01.01Z"/>
  </g>
  <defs>
    <clipPath id="a">
      <path fill="#fff" d="M0 0h24v24H0z"/>
    </clipPath>
  </defs>
</svg>
