<svg xmlns="http://www.w3.org/2000/svg" width="24" height="24" fill="none" viewBox="0 0 24 24">
  <g clip-path="url(#a)">
    <path fill="currentColor" d="M12 22.32c5.7 0 10.32-4.62 10.32-10.32S17.7 1.68 12 1.68 1.68 6.3 1.68 12 6.3 22.32 12 22.32Z"/>
    <path fill="currentColor" d="M10.83 16.63c-.28 0-.55-.09-.79-.28l-3.23-2.61c-.54-.43-.62-1.22-.19-1.76s1.22-.62 1.76-.19l2.31 1.86 4.79-5.33a1.26 1.26 0 0 1 1.77-.09c.51.46.55 1.25.09 1.77l-5.59 6.21c-.25.27-.59.41-.93.41l.01.01Z"/>
  </g>
  <defs>
    <clipPath id="a">
      <path fill="currentColor" d="M0 0h24v24H0z"/>
    </clipPath>
  </defs>
</svg>
