<svg xmlns="http://www.w3.org/2000/svg" width="25" height="24" fill="none" viewBox="0 0 25 24">
  <g clip-path="url(#a)">
    <path fill="currentColor" d="M19.815.83h-8.1c-2.2 0-3.99 1.79-3.99 3.99v8.1c0 2.2 1.79 3.99 3.99 3.99h8.1c2.2 0 3.99-1.79 3.99-3.99V4.81c0-2.2-1.79-3.99-3.99-3.99v.01Zm1.99 12.08c0 1.1-.89 1.99-1.99 1.99h-8.1c-1.1 0-1.99-.89-1.99-1.99v-8.1c0-1.1.89-1.99 1.99-1.99h8.1c1.1 0 1.99.89 1.99 1.99v8.1Z"/>
    <path fill="currentColor" d="M15.965 18.21c-.55 0-1 .45-1 1 0 1.1-.89 1.99-1.99 1.99h-7.51c-1.1 0-1.99-.89-1.99-1.99V11.7c0-1.1.89-1.99 1.99-1.99.55 0 1-.45 1-1s-.45-1-1-1c-2.2 0-3.99 1.79-3.99 3.99v7.51c0 2.2 1.79 3.99 3.99 3.99h7.51c2.2 0 3.99-1.79 3.99-3.99 0-.55-.45-1-1-1Z"/>
  </g>
  <defs>
    <clipPath id="a">
      <path fill="currentColor" d="M.604 0h24v24h-24z"/>
    </clipPath>
  </defs>
</svg>
