<svg xmlns="http://www.w3.org/2000/svg" width="24" height="24" fill="none" viewBox="0 0 24 24">
  <g clip-path="url(#a)">
    <path fill="currentColor" d="M19.21 5.66a4.66 4.66 0 0 0-4.41-3.17c-1.01 0-1.98.33-2.78.93-.8-.6-1.77-.93-2.78-.93a4.67 4.67 0 0 0-4.41 3.17A4.674 4.674 0 0 0 .3 10.33c0 2.53 2.02 4.6 4.53 4.67a4.66 4.66 0 0 0 4.41 3.17c1.01 0 1.98-.33 2.78-.93.8.6 1.77.93 2.78.93A4.67 4.67 0 0 0 19.21 15a4.674 4.674 0 0 0 4.53-4.67 4.68 4.68 0 0 0-4.53-4.67ZM19.07 13c-.16 0-.31-.02-.47-.05-.27-.05-.55.02-.77.18-.22.16-.36.41-.4.68a2.657 2.657 0 0 1-2.63 2.35c-.77 0-1.5-.34-2.02-.94-.19-.22-.47-.35-.76-.35-.29 0-.57.13-.76.35-.51.6-1.25.94-2.02.94-1.34 0-2.47-1.01-2.63-2.35a1.006 1.006 0 0 0-1.17-.86c-.15.03-.31.05-.47.05-1.47 0-2.67-1.2-2.67-2.67s1.2-2.67 2.67-2.67c.16 0 .31.02.47.05.27.05.55-.02.77-.18.22-.16.36-.41.4-.68A2.657 2.657 0 0 1 9.24 4.5c.77 0 1.5.34 2.02.94.19.22.47.35.76.35.29 0 .57-.13.76-.35.52-.6 1.25-.94 2.02-.94 1.34 0 2.47 1.01 2.63 2.35a1.006 1.006 0 0 0 1.17.86c.15-.03.31-.05.47-.05 1.47 0 2.67 1.2 2.67 2.67S20.54 13 19.07 13Zm.3 4.75a2.77 2.77 0 1 0 0 5.54 2.77 2.77 0 0 0 0-5.54Zm0 4.03c-.7 0-1.27-.57-1.27-1.27 0-.7.57-1.27 1.27-1.27.7 0 1.27.57 1.27 1.27 0 .7-.57 1.27-1.27 1.27Z"/>
  </g>
  <defs>
    <clipPath id="a">
      <path fill="currentColor" d="M0 0h24v24H0z"/>
    </clipPath>
  </defs>
</svg>
