<svg xmlns="http://www.w3.org/2000/svg" width="24" height="24" fill="none" viewBox="0 0 24 24">
  <g clip-path="url(#a)">
    <path fill="currentColor" d="M7.7 20.04H4.83a.67.67 0 0 1-.67-.67V4.2c0-.37.3-.67.67-.67h10.1c.37 0 .67.3.67.67v5.34c0 .55.45 1 1 1s1-.45 1-1V4.2c0-1.47-1.2-2.67-2.67-2.67H4.82c-1.47 0-2.67 1.2-2.67 2.67v15.17c0 1.47 1.2 2.67 2.67 2.67h2.87c.55 0 1-.45 1-1s-.45-1-1-1h.01Z"/>
    <path fill="currentColor" d="M13.99 6.89c0-.55-.45-1-1-1H6.84c-.55 0-1 .45-1 1s.45 1 1 1h6.15c.55 0 1-.45 1-1ZM6.84 9.6c-.55 0-1 .45-1 1s.45 1 1 1h4.66c.55 0 1-.45 1-1s-.45-1-1-1H6.84Zm16.39 3.43-2.54-2.54a.99.99 0 0 0-.71-.29c-.27 0-.52.11-.71.29l-7.09 7.09-1.43 1.43c-.17.17-.28.4-.29.65l-.16 2.7c-.02.29.09.56.29.77.19.19.44.29.71.29h.06l2.7-.16c.24-.01.47-.12.65-.29l1.43-1.43 7.09-7.09a.996.996 0 0 0 0-1.41v-.01Zm-9.66 8.25-1.2.07.07-1.2.46-.46 1.13 1.13-.46.46Zm1.87-1.87-1.13-1.13 5.68-5.68 1.13 1.13-5.68 5.68Z"/>
  </g>
  <defs>
    <clipPath id="a">
      <path fill="currentColor" d="M0 0h24v24H0z"/>
    </clipPath>
  </defs>
</svg>
