<svg xmlns="http://www.w3.org/2000/svg" width="25" height="24" fill="none" viewBox="0 0 25 24">
  <g clip-path="url(#a)">
    <path fill="currentColor" d="M12.604 1.4c-5.84 0-10.6 4.76-10.6 10.6s4.75 10.6 10.6 10.6 10.6-4.75 10.6-10.6-4.76-10.6-10.6-10.6Zm0 19.2c-4.74 0-8.6-3.86-8.6-8.6s3.86-8.6 8.6-8.6 8.6 3.86 8.6 8.6-3.86 8.6-8.6 8.6Z"/>
    <path fill="currentColor" d="M12.604 5.77c-.55 0-1 .45-1 1v6.4c0 .55.45 1 1 1s1-.45 1-1v-6.4c0-.55-.45-1-1-1Zm0 9.58c-.55 0-1 .45-1 1v.62c0 .55.45 1 1 1s1-.45 1-1v-.62c0-.55-.45-1-1-1Z"/>
  </g>
  <defs>
    <clipPath id="a">
      <path fill="currentColor" d="M.604 0h24v24h-24z"/>
    </clipPath>
  </defs>
</svg>
