<svg xmlns="http://www.w3.org/2000/svg" width="24" height="24" fill="none" viewBox="0 0 24 24">
  <g clip-path="url(#a)">
    <path fill="currentColor" d="M12 23.58c-1.11 0-2.13-.61-2.65-1.59l-.45-.84c-.23-.42-.72-.63-1.18-.49l-.92.28c-1.06.32-2.21.03-3-.75a2.999 2.999 0 0 1-.75-3l.28-.92c.14-.46-.07-.95-.49-1.18L2 14.64a2.998 2.998 0 0 1-1.59-2.65c0-1.11.61-2.13 1.59-2.65l.84-.45c.42-.23.63-.72.49-1.18l-.28-.92c-.32-1.06-.03-2.21.75-3s1.93-1.07 3-.75l.92.28c.46.14.95-.07 1.18-.49l.45-.84C9.87 1.01 10.89.4 12 .4c1.11 0 2.13.61 2.65 1.59l.45.84c.23.42.72.63 1.18.49l.92-.28c1.06-.32 2.21-.03 3 .75.78.79 1.07 1.93.75 3l-.28.92c-.14.46.07.95.49 1.18l.84.45c.98.52 1.59 1.54 1.59 2.65 0 1.11-.61 2.13-1.59 2.65l-.84.45c-.42.23-.63.72-.49 1.18l.28.92c.32 1.06.03 2.21-.75 3s-1.93 1.07-3 .75l-.92-.28c-.46-.14-.95.07-1.18.49l-.45.84c-.52.98-1.54 1.59-2.65 1.59Zm-3.99-4.96c1.09 0 2.12.59 2.66 1.59l.45.84c.26.48.71.53.89.53.18 0 .63-.05.89-.53l.45-.84a3.018 3.018 0 0 1 3.52-1.46l.92.28c.52.16.87-.12 1-.25s.41-.48.25-1l-.28-.92c-.41-1.37.2-2.85 1.46-3.52l.84-.45a.99.99 0 0 0 .53-.89.99.99 0 0 0-.53-.89l-.84-.45a3.013 3.013 0 0 1-1.46-3.52l.28-.92a.972.972 0 0 0-.25-1 .98.98 0 0 0-1-.25l-.92.28c-1.37.42-2.85-.2-3.52-1.46l-.45-.84a.99.99 0 0 0-.89-.53.99.99 0 0 0-.89.53l-.45.84a3.018 3.018 0 0 1-3.52 1.46l-.92-.28a.972.972 0 0 0-1 .25c-.13.13-.41.48-.25 1l.28.92c.41 1.37-.2 2.85-1.46 3.52l-.84.45a.99.99 0 0 0-.53.89c0 .18.05.63.53.89l.84.45c1.26.67 1.87 2.15 1.46 3.52l-.28.92c-.16.52.12.87.25 1s.48.41 1 .25l.92-.28c.29-.09.58-.13.86-.13Z"/>
    <path fill="currentColor" d="M12 16.26c-2.35 0-4.26-1.91-4.26-4.26 0-2.35 1.91-4.26 4.26-4.26 2.35 0 4.26 1.91 4.26 4.26 0 2.35-1.91 4.26-4.26 4.26Zm0-6.52c-1.25 0-2.26 1.02-2.26 2.26A2.27 2.27 0 0 0 12 14.26 2.27 2.27 0 0 0 14.26 12 2.27 2.27 0 0 0 12 9.74Z"/>
  </g>
  <defs>
    <clipPath id="a">
      <path fill="currentColor" d="M0 0h24v24H0z"/>
    </clipPath>
  </defs>
</svg>
