<svg xmlns="http://www.w3.org/2000/svg" width="24" height="24" fill="none" viewBox="0 0 24 24">
  <path fill="currentColor" d="M21.432 10.198c.117.669.172 1.352.172 2.032 0 3.042-1.087 5.614-2.98 7.356h.004C16.971 21.115 14.697 22 12 22a10 10 0 0 1-8.936-5.508 10.008 10.008 0 0 1 0-8.98A9.998 9.998 0 0 1 12 2.001a9.61 9.61 0 0 1 6.69 2.601l-2.854 2.855A5.434 5.434 0 0 0 12 5.957c-2.61 0-4.825 1.76-5.615 4.13a5.99 5.99 0 0 0 0 3.83h.004c.794 2.366 3.006 4.126 5.614 4.126 1.349 0 2.506-.346 3.403-.956h-.004a4.628 4.628 0 0 0 1.999-3.038H12v-3.85h9.432Z"/>
</svg>
