<svg xmlns="http://www.w3.org/2000/svg" width="24" height="24" fill="none" viewBox="0 0 24 24">
  <g clip-path="url(#a)">
    <path fill="currentColor" d="M12 22.6C6.16 22.6 1.4 17.85 1.4 12S6.16 1.4 12 1.4 22.6 6.15 22.6 12 17.85 22.6 12 22.6Zm0-19.2c-4.74 0-8.6 3.86-8.6 8.6s3.86 8.6 8.6 8.6 8.6-3.86 8.6-8.6-3.86-8.6-8.6-8.6Z"/>
    <path fill="currentColor" d="M12 15.24c-.55 0-1-.45-1-1v-1.91c0-.55.45-1 1-1 .52 0 1.01-.23 1.35-.63.34-.41.48-.92.38-1.46-.12-.69-.71-1.28-1.4-1.4-.54-.1-1.05.04-1.46.38-.4.34-.63.83-.63 1.35 0 .55-.45 1-1 1s-1-.45-1-1c0-1.11.49-2.16 1.34-2.88.85-.72 1.98-1.02 3.09-.82 1.52.27 2.76 1.51 3.03 3.03.19 1.11-.1 2.24-.82 3.09-.5.59-1.15 1.01-1.88 1.21v1.05c0 .55-.45 1-1 1v-.01Zm0 3.42c-.55 0-1-.45-1-1v-.62c0-.55.45-1 1-1s1 .45 1 1v.62c0 .55-.45 1-1 1Z"/>
  </g>
  <defs>
    <clipPath id="a">
      <path fill="currentColor" d="M0 0h24v24H0z"/>
    </clipPath>
  </defs>
</svg>
