<svg xmlns="http://www.w3.org/2000/svg" width="24" height="24" fill="none" viewBox="0 0 24 24">
  <g clip-path="url(#a)">
    <path fill="currentColor" d="M19.04 4.61H4.96c-1.78 0-3.22 1.45-3.22 3.22v8.34c0 1.78 1.45 3.22 3.22 3.22h14.08c1.78 0 3.22-1.45 3.22-3.22V7.83c0-1.78-1.45-3.22-3.22-3.22ZM3.74 7.83c0-.67.55-1.22 1.22-1.22h14.08c.67 0 1.22.55 1.22 1.22v8.34c0 .17-.03.33-.1.47l-5.11-5.11c-.5-.5-1.32-.5-1.82 0l-3.88 3.88c-.5.5-1.32.5-1.82 0s-1.32-.5-1.82 0L4.1 17.02a1.2 1.2 0 0 1-.35-.86V7.83h-.01Z"/>
    <path fill="currentColor" d="M7.55 11.8c1.09 0 1.98-.89 1.98-1.98 0-1.09-.89-1.98-1.98-1.98-1.09 0-1.98.89-1.98 1.98 0 1.09.89 1.98 1.98 1.98Z"/>
  </g>
  <defs>
    <clipPath id="a">
      <path fill="currentColor" d="M0 0h24v24H0z"/>
    </clipPath>
  </defs>
</svg>
