<svg xmlns="http://www.w3.org/2000/svg" width="25" height="24" fill="none" viewBox="0 0 25 24">
  <path fill="currentColor" d="M23.875 9.42s0-.08-.02-.12c0-.05-.02-.1-.04-.14a.358.358 0 0 0-.04-.11c-.02-.04-.04-.07-.06-.1-.01-.02-.02-.05-.03-.07-.01-.02-.04-.03-.05-.05-.03-.03-.05-.06-.08-.09-.01-.01-.02-.03-.03-.04l-3.38-2.77s-.02 0-.03-.02V2.99c0-1.2-.98-2.18-2.18-2.18H7.284c-1.2 0-2.18.98-2.18 2.18v2.94l-3.37 2.76s-.02.03-.03.04c-.03.03-.06.06-.08.09-.02.02-.04.03-.05.05-.02.02-.02.05-.03.07-.02.03-.05.07-.06.1-.02.04-.03.07-.04.11-.02.05-.03.09-.04.14 0 .04-.01.08-.02.12v10.74c0 1.62 1.32 2.93 2.93 2.93h16.64c1.62 0 2.93-1.32 2.93-2.93V9.41l-.01.01Zm-3.77-.94 1.15.95-1.15.86V8.48Zm-13-5.49c0-.1.08-.18.18-.18h10.64c.1 0 .18.08.18.18v8.79l-3.7 2.75-1.18-.88c-.35-.26-.84-.26-1.19 0l-1.18.88-3.74-2.79V2.99h-.01Zm-2 5.53v1.73l-1.11-.83 1.11-.91v.01Zm-1.15 11.15c-.24.18-.41.41-.54.66-.01-.06-.04-.11-.04-.18v-8.7l5.8 4.32-5.22 3.89v.01Zm1.44 1.42 7.24-5.39 7.24 5.39H5.395Zm16.49-.93c0 .06-.02.12-.04.18-.13-.25-.3-.48-.54-.67l-5.22-3.89 5.8-4.32v8.7Z"/>
  <path fill="currentColor" d="M16.255 8.06c0-1.98-1.64-3.58-3.65-3.58s-3.65 1.6-3.65 3.58 1.64 3.58 3.65 3.58 3.65-1.6 3.65-3.58Zm-5.44-1.46c0-.1.08-.19.19-.19h3.2c.1 0 .19.08.19.19v.75c0 .1-.08.19-.19.19h-3.2a.19.19 0 0 1-.19-.19V6.6Zm0 3.05V8.9c0-.1.08-.19.19-.19h3.2c.1 0 .19.08.19.19v.75c0 .1-.08.19-.19.19h-3.2a.19.19 0 0 1-.19-.19Z"/>
</svg>
