<svg xmlns="http://www.w3.org/2000/svg" width="25" height="24" fill="none" viewBox="0 0 25 24">
  <path fill="#1C1C1C" d="m12.434 16.16-2.51 2.51c-1.1 1.1-2.88 1.1-3.98 0s-1.1-2.88 0-3.98l2.51-2.51a.996.996 0 1 0-1.41-1.41l-2.51 2.51a4.816 4.816 0 0 0 3.4 8.22c1.23 0 2.47-.47 3.4-1.41l2.51-2.51a.996.996 0 1 0-1.41-1.41v-.01Zm8.261-12.24a4.816 4.816 0 0 0-6.81 0l-2.51 2.51a.996.996 0 1 0 1.41 1.41l2.51-2.51c1.1-1.1 2.88-1.1 3.98 0s1.1 2.88 0 3.98l-2.51 2.51a.996.996 0 0 0 .71 1.7c.26 0 .51-.1.71-.29l2.51-2.51a4.816 4.816 0 0 0 0-6.81v.01Z"/>
  <path fill="#1C1C1C" d="m14.225 8.94-4.68 4.68a.996.996 0 0 0 .71 1.7c.26 0 .51-.1.71-.29l4.68-4.68a.996.996 0 1 0-1.41-1.41h-.01Z"/>
</svg>
