<svg xmlns="http://www.w3.org/2000/svg" width="24" height="24" fill="none" viewBox="0 0 24 24">
  <g clip-path="url(#a)">
    <path fill="currentColor" d="M18.75 8.82H17.2v-2.2c0-2.87-2.33-5.2-5.2-5.2s-5.2 2.33-5.2 5.2v2.2H5.25c-1.29 0-2.33 1.04-2.33 2.33v8.49c0 1.28 1.04 2.33 2.33 2.33h13.5c1.29 0 2.33-1.05 2.33-2.33v-8.49c0-1.28-1.04-2.33-2.33-2.33ZM8.8 6.62c0-1.77 1.44-3.2 3.2-3.2 1.76 0 3.2 1.44 3.2 3.2v2.2H8.8v-2.2Zm10.28 13.02c0 .18-.15.33-.33.33H5.25c-.18 0-.33-.15-.33-.33v-8.49c0-.18.15-.33.33-.33h13.5c.18 0 .33.15.33.33v8.49Z"/>
    <path fill="currentColor" d="M12 12.41a1.91 1.91 0 0 0-.72 3.68c0 .04-.02.08-.02.12v1.37c0 .41.34.75.75.75s.75-.34.75-.75v-1.37s-.02-.08-.02-.12a1.91 1.91 0 0 0-.72-3.68H12Z"/>
  </g>
  <defs>
    <clipPath id="a">
      <path fill="currentColor" d="M0 0h24v24H0z"/>
    </clipPath>
  </defs>
</svg>
