<svg xmlns="http://www.w3.org/2000/svg" width="24" height="24" fill="none" viewBox="0 0 24 24">
  <g clip-path="url(#a)">
    <path fill="currentColor" d="M15.28 14.63c-.55 0-1 .45-1 1v5.49H4.18V7.87c0-2.78 2.27-5.05 5.05-5.05s5.05 2.27 5.05 5.05v1.45c0 .55.45 1 1 1s1-.45 1-1V7.87c0-3.89-3.16-7.05-7.05-7.05-3.89 0-7.05 3.16-7.05 7.05v13.35c0 1.05.85 1.9 1.9 1.9h10.29a1.9 1.9 0 0 0 1.9-1.9v-5.58c0-.55-.45-1-1-1l.01-.01Z"/>
    <path fill="currentColor" d="m22.75 11.74-3.06-3.06a.996.996 0 1 0-1.41 1.41l1.35 1.35h-7.72c-.55 0-1 .45-1 1s.45 1 1 1h7.72l-1.35 1.35a.996.996 0 0 0 .71 1.7c.26 0 .51-.1.71-.29l3.06-3.06a.996.996 0 0 0 0-1.41l-.01.01Z"/>
  </g>
  <defs>
    <clipPath id="a">
      <path fill="currentColor" d="M0 0h24v24H0z"/>
    </clipPath>
  </defs>
</svg>
