<svg xmlns="http://www.w3.org/2000/svg" width="24" height="24" fill="none" viewBox="0 0 24 24">
  <g clip-path="url(#a)">
    <path fill="currentColor" d="M15.84.48H8.15C3.92.48.48 3.92.48 8.16v7.69c0 4.23 3.44 7.67 7.67 7.67h7.69c4.23 0 7.67-3.44 7.67-7.67V8.16c0-4.23-3.44-7.67-7.67-7.67V.48ZM8.16 21.52c-.72 0-1.42-.14-2.05-.39a5.893 5.893 0 0 1 2.34-3.89c.15-.11.36-.14.54-.06 1.92.77 4.11.77 6.03 0 .18-.07.39-.05.54.06a5.87 5.87 0 0 1 2.34 3.89c-.64.25-1.33.39-2.05.39H8.16Zm13.36-5.68c0 1.64-.7 3.12-1.82 4.15a7.97 7.97 0 0 0-2.95-4.36 2.59 2.59 0 0 0-2.48-.32 6.14 6.14 0 0 1-4.54 0 2.59 2.59 0 0 0-2.48.31 8.005 8.005 0 0 0-2.95 4.36 5.64 5.64 0 0 1-1.82-4.15V8.14c0-3.13 2.55-5.67 5.67-5.67h7.69c3.13 0 5.67 2.55 5.67 5.67v7.69l.01.01Z"/>
    <path fill="currentColor" d="M12 5.08c-2.51 0-4.55 2.04-4.55 4.55s2.04 4.55 4.55 4.55 4.55-2.04 4.55-4.55S14.51 5.08 12 5.08Zm0 7.09c-1.4 0-2.55-1.14-2.55-2.55S10.59 7.07 12 7.07s2.55 1.14 2.55 2.55-1.14 2.55-2.55 2.55Z"/>
  </g>
  <defs>
    <clipPath id="a">
      <path fill="currentColor" d="M0 0h24v24H0z"/>
    </clipPath>
  </defs>
</svg>
