<svg xmlns="http://www.w3.org/2000/svg" width="24" height="24" fill="none" viewBox="0 0 24 24">
  <g clip-path="url(#a)">
    <path fill="#000" d="M23.07 6.49c0-.27-.11-.52-.29-.71l-4.56-4.56a.996.996 0 0 0-1.41 0l-2.96 2.96-9.77 9.76-2.57 2.57c-.17.17-.28.4-.29.65l-.29 4.85c-.02.29.09.56.29.77.19.19.44.29.71.29h.06l4.85-.29c.24-.01.47-.12.65-.29l2.57-2.57 9.75-9.75 2.96-2.96a.99.99 0 0 0 .29-.71l.01-.01Zm-8.53-.18 3.15 3.15-8.34 8.34-3.15-3.15 8.34-8.34ZM6.34 20.8l-1.61.1-1.63-1.63.1-1.61 1.59-1.59 3.15 3.15-1.59 1.59-.01-.01ZM19.1 8.04l-3.15-3.15 1.55-1.55 3.15 3.15-1.55 1.55Z"/>
  </g>
  <defs>
    <clipPath id="a">
      <path fill="#fff" d="M0 0h24v24H0z"/>
    </clipPath>
  </defs>
</svg>
