<svg xmlns="http://www.w3.org/2000/svg" width="24" height="24" fill="none" viewBox="0 0 24 24">
  <g clip-path="url(#a)">
    <path fill="#1C1C1C" d="M8.22 9.26c0 2.08 1.69 3.78 3.78 3.78s3.78-1.69 3.78-3.78S14.09 5.48 12 5.48 8.22 7.17 8.22 9.26Zm5.56 0c0 .98-.8 1.78-1.78 1.78s-1.78-.8-1.78-1.78.8-1.78 1.78-1.78 1.78.8 1.78 1.78Z"/>
    <path fill="#1C1C1C" d="M20.38 3.29 12.27.99a.99.99 0 0 0-.54 0l-8.11 2.3c-.43.12-.73.51-.73.96v9.86c0 4.98 7.81 8.62 8.7 9.02a.978.978 0 0 0 .82 0c.89-.4 8.7-4.04 8.7-9.02V4.25c0-.45-.3-.84-.73-.96ZM12 21.12c-1.15-.56-2.92-1.57-4.4-2.8.17-1.16.78-2.2 1.75-2.92.06-.04.14-.05.21-.02 1.56.62 3.33.62 4.88 0 .07-.03.16-.02.21.02.97.72 1.58 1.76 1.75 2.92-1.49 1.24-3.25 2.25-4.4 2.8Zm7.11-7.01c0 .87-.43 1.75-1.08 2.57a6.478 6.478 0 0 0-2.18-2.89 2.21 2.21 0 0 0-2.15-.27c-1.08.43-2.31.43-3.4 0-.71-.28-1.54-.18-2.15.27-1 .74-1.75 1.75-2.18 2.89-.65-.82-1.08-1.7-1.08-2.57v-9.1L12 3l7.11 2.01v9.1Z"/>
  </g>
  <defs>
    <clipPath id="a">
      <path fill="#fff" d="M0 0h24v24H0z"/>
    </clipPath>
  </defs>
</svg>
