<svg xmlns="http://www.w3.org/2000/svg" width="25" height="24" fill="none" viewBox="0 0 25 24">
  <path fill="currentColor" d="M10.925 10.66h-2.9c-.38 0-.67-.34-.62-.71l.45-3.03a.618.618 0 0 0-.62-.71h-1.19c-.3 0-.55.21-.61.5l-.82 3.9s-.01.08-.01.13v6.25c0 .34.28.62.62.62h5.69c.34 0 .62-.28.62-.62V11.3c0-.34-.28-.62-.62-.62l.01-.02Zm9.389 0h-2.9c-.38 0-.67-.34-.62-.71l.45-3.03a.618.618 0 0 0-.62-.71h-1.19c-.3 0-.55.21-.61.5l-.82 3.9s-.01.08-.01.13v6.25c0 .34.28.62.62.62h5.69c.34 0 .62-.28.62-.62V11.3c0-.34-.28-.62-.62-.62l.01-.02Z"/>
</svg>
