<svg xmlns="http://www.w3.org/2000/svg" width="24" height="24" fill="none" viewBox="0 0 24 24">
  <g clip-path="url(#a)">
    <path fill="#1C1C1C" d="M10.09 19.4c-2.4 0-4.8-.91-6.62-2.74C1.65 14.83.73 12.54.73 10.04s.97-4.85 2.74-6.62c3.65-3.65 9.59-3.65 13.24 0a9.296 9.296 0 0 1 2.74 6.62c0 2.5-.97 4.85-2.74 6.62a9.47 9.47 0 0 1-6.62 2.74Zm0-16.72c-1.89 0-3.77.72-5.21 2.15s-2.16 3.24-2.16 5.21c0 1.97.77 3.82 2.16 5.21 2.87 2.87 7.54 2.87 10.41 0a7.322 7.322 0 0 0 2.16-5.21c0-1.97-.77-3.82-2.16-5.21a7.452 7.452 0 0 0-5.21-2.15h.01Z"/>
    <path fill="#1C1C1C" d="M21.71 22.9c-.32 0-.64-.12-.88-.37L15.5 17.2a1.25 1.25 0 0 1 0-1.77 1.25 1.25 0 0 1 1.77 0l5.33 5.33c.49.49.49 1.28 0 1.77-.24.24-.56.37-.88.37h-.01Z"/>
  </g>
  <defs>
    <clipPath id="a">
      <path fill="#fff" d="M0 0h24v24H0z"/>
    </clipPath>
  </defs>
</svg>
