<svg xmlns="http://www.w3.org/2000/svg" width="25" height="24" fill="none" viewBox="0 0 25 24">
  <g clip-path="url(#a)">
    <path fill="#1C1C1C" d="M10.255 5.35 11.604 4v6.47c0 .55.45 1 1 1s1-.45 1-1V4l1.35 1.35c.2.2.45.29.71.29.26 0 .51-.1.71-.29a.996.996 0 0 0 0-1.41L13.315.88a.996.996 0 0 0-1.41 0l-3.06 3.06a.996.996 0 1 0 1.41 1.41Z"/>
    <path fill="#1C1C1C" d="M17.114 7.09h-1.42c-.55 0-1 .45-1 1s.45 1 1 1h1.42c1.21 0 2.2.99 2.2 2.2v7.81c0 1.21-.99 2.2-2.2 2.2h-9.02c-1.21 0-2.2-.99-2.2-2.2v-7.81c0-1.21.99-2.2 2.2-2.2h1.42c.55 0 1-.45 1-1s-.45-1-1-1h-1.42c-2.32 0-4.2 1.89-4.2 4.2v7.81c0 2.32 1.89 4.2 4.2 4.2h9.01a4.2 4.2 0 0 0 4.2-4.2v-7.81a4.2 4.2 0 0 0-4.2-4.2h.01Z"/>
  </g>
  <defs>
    <clipPath id="a">
      <path fill="#fff" d="M.604 0h24v24h-24z"/>
    </clipPath>
  </defs>
</svg>
