<svg xmlns="http://www.w3.org/2000/svg" width="25" height="24" fill="none" viewBox="0 0 25 24">
  <path fill="currentColor" d="M10.405 10.1c-.43-.49-.71-1.12-.71-1.82 0-1.52 1.23-2.75 2.75-2.75 1.05 0 1.99.58 2.46 1.52.31.62 1.06.87 1.68.56.62-.31.87-1.06.56-1.68-.9-1.79-2.7-2.91-4.7-2.91-2.9 0-5.25 2.36-5.25 5.25 0 .64.13 1.25.35 1.82h2.86v.01Zm4.09 4.36c.44.49.71 1.12.71 1.83 0 1.52-1.23 2.75-2.75 2.75-1.16 0-2.2-.73-2.59-1.82-.23-.65-.95-.99-1.6-.75-.65.23-.99.95-.75 1.6a5.266 5.266 0 0 0 4.94 3.48c2.9 0 5.25-2.36 5.25-5.25 0-.65-.13-1.26-.35-1.83h-2.86v-.01Zm6.72-3.18H3.995c-.55 0-1 .45-1 1s.45 1 1 1h17.22c.55 0 1-.45 1-1s-.45-1-1-1Z"/>
</svg>
