<svg xmlns="http://www.w3.org/2000/svg" width="24" height="24" fill="none" viewBox="0 0 24 24">
  <g clip-path="url(#a)">
    <path fill="#1C1C1C" d="M17.45 23.21c-.28 0-.55-.09-.79-.28l-2.42-1.95c-.54-.43-.62-1.22-.19-1.76s1.22-.62 1.76-.19l1.5 1.21 3.39-3.77a1.26 1.26 0 0 1 1.77-.09c.51.46.55 1.25.09 1.77l-4.19 4.65c-.25.27-.59.41-.93.41h.01ZM15.39 7.24H8.34c-.55 0-1-.45-1-1s.45-1 1-1h7.05c.55 0 1 .45 1 1s-.45 1-1 1Zm0 3.34H8.34c-.55 0-1-.45-1-1s.45-1 1-1h7.05c.55 0 1 .45 1 1s-.45 1-1 1Zm-1.95 3.35h-5.1c-.55 0-1-.45-1-1s.45-1 1-1h5.1c.55 0 1 .45 1 1s-.45 1-1 1Z"/>
    <path fill="#1C1C1C" d="M11.79 22.96H7.03c-1.79 0-3.25-1.46-3.25-3.25V4.29c0-1.79 1.46-3.25 3.25-3.25h9.93c1.79 0 3.25 1.46 3.25 3.25v9.68c0 .55-.45 1-1 1s-1-.45-1-1V4.29c0-.69-.56-1.25-1.25-1.25H7.03c-.69 0-1.25.56-1.25 1.25v15.43c0 .69.56 1.25 1.25 1.25h4.76c.55 0 1 .45 1 1s-.45 1-1 1v-.01Z"/>
  </g>
  <defs>
    <clipPath id="a">
      <path fill="#fff" d="M0 0h24v24H0z"/>
    </clipPath>
  </defs>
</svg>
