<svg xmlns="http://www.w3.org/2000/svg" width="24" height="24" fill="none" viewBox="0 0 24 24">
  <g clip-path="url(#a)">
    <path fill="#1C1C1C" d="M20.91 3.81 13.11.84a3.17 3.17 0 0 0-2.23 0L3.09 3.81c-1.2.46-2.01 1.63-2.01 2.92V20.4c0 1.72 1.4 3.12 3.12 3.12h15.6c1.72 0 3.12-1.4 3.12-3.12V6.73c0-1.29-.81-2.46-2.01-2.92Zm.01 16.59c0 .62-.5 1.12-1.12 1.12H4.2c-.62 0-1.12-.5-1.12-1.12V6.73c0-.46.29-.88.72-1.05l7.8-2.98c.13-.05.26-.07.4-.07s.27.02.4.07l7.8 2.98c.43.16.72.59.72 1.05V20.4Z"/>
    <path fill="#1C1C1C" d="M8.93 5.94H7.15c-1.29 0-2.34 1.05-2.34 2.34v1.78c0 1.29 1.05 2.34 2.34 2.34h1.78c1.29 0 2.34-1.05 2.34-2.34V8.28c0-1.29-1.05-2.34-2.34-2.34Zm.64 4.13c0 .35-.29.64-.64.64H7.15c-.35 0-.64-.29-.64-.64V8.29c0-.35.29-.64.64-.64h1.78c.35 0 .64.29.64.64v1.78Zm7.28-4.13h-1.78c-1.29 0-2.34 1.05-2.34 2.34v1.78c0 1.29 1.05 2.34 2.34 2.34h1.78c1.29 0 2.34-1.05 2.34-2.34V8.28c0-1.29-1.05-2.34-2.34-2.34Zm.64 4.13c0 .35-.29.64-.64.64h-1.78c-.35 0-.64-.29-.64-.64V8.29c0-.35.29-.64.64-.64h1.78c.35 0 .64.29.64.64v1.78Zm-.64 3.42h-1.78c-1.29 0-2.34 1.05-2.34 2.34v1.78c0 1.29 1.05 2.34 2.34 2.34h1.78c1.29 0 2.34-1.05 2.34-2.34v-1.78c0-1.29-1.05-2.34-2.34-2.34Zm.64 4.12c0 .35-.29.64-.64.64h-1.78c-.35 0-.64-.29-.64-.64v-1.78c0-.35.29-.64.64-.64h1.78c.35 0 .64.29.64.64v1.78Zm-8.56-4.12H7.15c-1.29 0-2.34 1.05-2.34 2.34v1.78c0 1.29 1.05 2.34 2.34 2.34h1.78c1.29 0 2.34-1.05 2.34-2.34v-1.78c0-1.29-1.05-2.34-2.34-2.34Zm.64 4.12c0 .35-.29.64-.64.64H7.15c-.35 0-.64-.29-.64-.64v-1.78c0-.35.29-.64.64-.64h1.78c.35 0 .64.29.64.64v1.78Z"/>
  </g>
  <defs>
    <clipPath id="a">
      <path fill="#fff" d="M0 0h24v24H0z"/>
    </clipPath>
  </defs>
</svg>
