<svg xmlns="http://www.w3.org/2000/svg" width="24" height="24" fill="none" viewBox="0 0 24 24">
  <g clip-path="url(#a)">
    <path fill="#1C1C1C" d="M20.82 4.58h-5.74V3.15c0-1.2-.97-2.17-2.17-2.17h-1.82c-1.2 0-2.17.97-2.17 2.17v1.43H3.18c-.55 0-1 .45-1 1s.45 1 1 1h1.27v11.64c0 2.69 2.19 4.88 4.88 4.88h5.34c2.69 0 4.88-2.19 4.88-4.88V6.58h1.27c.55 0 1-.45 1-1s-.45-1-1-1Zm-9.9-1.43c0-.1.08-.17.17-.17h1.82c.1 0 .17.08.17.17v1.43h-2.16V3.15Zm6.63 15.07a2.88 2.88 0 0 1-2.88 2.88H9.33a2.88 2.88 0 0 1-2.88-2.88V6.58h11.1v11.64Z"/>
    <path fill="#1C1C1C" d="M8.81 9.23c-.41 0-.75.34-.75.75v6.36c0 .41.34.75.75.75s.75-.34.75-.75V9.98c0-.41-.34-.75-.75-.75Zm3.19 0c-.41 0-.75.34-.75.75v6.36c0 .41.34.75.75.75s.75-.34.75-.75V9.98c0-.41-.34-.75-.75-.75Zm3.19 7.85c.41 0 .75-.34.75-.75V9.97c0-.41-.34-.75-.75-.75s-.75.34-.75.75v6.36c0 .41.34.75.75.75Z"/>
  </g>
  <defs>
    <clipPath id="a">
      <path fill="#fff" d="M0 0h24v24H0z"/>
    </clipPath>
  </defs>
</svg>
