<svg xmlns="http://www.w3.org/2000/svg" width="24" height="24" fill="none" viewBox="0 0 24 24">
  <g clip-path="url(#a)">
    <path fill="currentColor" d="M15.06.8H8.95C6.83.8 5.11 2.52 5.11 4.64v14.72c0 2.12 1.72 3.84 3.84 3.84h6.11c2.12 0 3.84-1.72 3.84-3.84V4.64C18.9 2.52 17.18.8 15.06.8Zm1.84 18.56c0 1.01-.83 1.84-1.84 1.84H8.95c-1.01 0-1.84-.83-1.84-1.84V4.64c0-1.01.83-1.84 1.84-1.84h6.11c1.01 0 1.84.83 1.84 1.84v14.72Z"/>
    <path fill="currentColor" d="M14.06 3.77H9.93c-.55 0-1 .45-1 1s.45 1 1 1h4.13c.55 0 1-.45 1-1s-.45-1-1-1Z"/>
  </g>
  <defs>
    <clipPath id="a">
      <path fill="currentColor" d="M0 0h24v24H0z"/>
    </clipPath>
  </defs>
</svg>
