<svg xmlns="http://www.w3.org/2000/svg" width="24" height="24" fill="none" viewBox="0 0 24 24">
  <g clip-path="url(#a)">
    <path fill="#1C1C1C" d="m22.59 20.77-5.06-5.06a9.283 9.283 0 0 0 1.92-5.67c0-2.5-.97-4.85-2.74-6.62A9.296 9.296 0 0 0 10.09.68c-2.5 0-4.85.97-6.62 2.74a9.296 9.296 0 0 0-2.74 6.62c0 2.5.97 4.85 2.74 6.62a9.296 9.296 0 0 0 6.62 2.74c2.08 0 4.05-.68 5.67-1.92l5.06 5.06c.24.24.56.37.88.37.32 0 .64-.12.88-.37.49-.49.49-1.28 0-1.77h.01Zm-8.56-6.8a5.57 5.57 0 0 1-7.87 0 5.57 5.57 0 0 1 0-7.87 5.57 5.57 0 0 1 7.87 0 5.57 5.57 0 0 1 0 7.87Z"/>
  </g>
  <defs>
    <clipPath id="a">
      <path fill="#fff" d="M0 0h24v24H0z"/>
    </clipPath>
  </defs>
</svg>
