<svg xmlns="http://www.w3.org/2000/svg" width="24" height="24" fill="none" viewBox="0 0 24 24">
  <g clip-path="url(#a)">
    <path fill="currentColor" d="M22.422 17.683h-2.534v-2.54c0-.55-.448-1-.997-1-.549 0-.997.45-.997 1v2.54H15.36c-.549 0-.998.45-.998 1s.45 1 .998 1h2.534v2.54c0 .55.448 1 .997 1 .549 0 .998-.45.998-1v-2.54h2.533c.549 0 .998-.45.998-1s-.45-1-.998-1Z"/>
    <path fill="currentColor" d="M18.163 2.453h-12.3c-3.052 0-5.536 2.49-5.536 5.55v2.93c0 3.06 2.484 5.54 5.526 5.54h7.152a1.001 1.001 0 0 0 0-2H5.853a3.542 3.542 0 0 1-3.53-3.54v-2.93c0-1.95 1.585-3.54 3.53-3.54h12.3a3.542 3.542 0 0 1 3.53 3.54v2.93c0 .67-.189 1.33-.548 1.9-.3.47-.16 1.08.31 1.38a.998.998 0 0 0 1.376-.31c.558-.89.858-1.91.858-2.97v-2.93c0-3.06-2.484-5.54-5.526-5.54l.01-.01Z"/>
    <path fill="currentColor" d="M18.053 7.623c0-.55-.45-1-.998-1H5.953a1.001 1.001 0 0 0 0 2h11.102c.549 0 .998-.45.998-1Zm-12.1 2.63a1.001 1.001 0 0 0 0 2h6.474a1.001 1.001 0 0 0 0-2H5.953Z"/>
  </g>
  <defs>
    <clipPath id="a">
      <path fill="currentColor" d="M0 0h24v24H0z"/>
    </clipPath>
  </defs>
</svg>
