<svg xmlns="http://www.w3.org/2000/svg" width="24" height="24" fill="none" viewBox="0 0 24 24">
  <g clip-path="url(#a)">
    <path fill="currentColor" d="M22.69 18.185h-2.54v-2.54c0-.55-.45-1-1-1s-1 .45-1 1v2.54h-2.54c-.55 0-1 .45-1 1s.45 1 1 1h2.54v2.54c0 .55.45 1 1 1s1-.45 1-1v-2.54h2.54c.55 0 1-.45 1-1s-.45-1-1-1Z"/>
    <path fill="currentColor" d="M13.47 21.635H2.89c-.18 0-.33-.15-.33-.33V4.675c0-1.15.93-2.08 2.08-2.08h14.88c1.15 0 2.08.93 2.08 2.08v8.8c0 .55.45 1 1 1s1-.45 1-1v-8.8c0-2.25-1.83-4.08-4.08-4.08H4.64C2.39.595.56 2.425.56 4.675v16.63c0 1.29 1.05 2.33 2.33 2.33h10.58c.55 0 1-.45 1-1s-.45-1-1-1Z"/>
    <path fill="currentColor" d="M11.42 7.135c0-1.37-1.12-2.49-2.49-2.49H6.9c-1.37 0-2.49 1.12-2.49 2.49v2.03c0 1.37 1.12 2.49 2.49 2.49h2.03c1.37 0 2.49-1.12 2.49-2.49v-2.03Zm-2 2.03c0 .27-.22.49-.49.49H6.9a.49.49 0 0 1-.49-.49v-2.03c0-.27.22-.49.49-.49h2.03c.27 0 .49.22.49.49v2.03Zm7.84-4.52h-2.03c-1.37 0-2.49 1.12-2.49 2.49v2.03c0 1.37 1.12 2.49 2.49 2.49h2.03c1.37 0 2.49-1.12 2.49-2.49v-2.03c0-1.37-1.12-2.49-2.49-2.49Zm.48 4.52c0 .27-.22.49-.49.49h-2.03a.49.49 0 0 1-.49-.49v-2.03c0-.27.22-.49.49-.49h2.03c.27 0 .49.22.49.49v2.03Zm-8.81 3.42H6.9c-1.37 0-2.49 1.12-2.49 2.49v2.03c0 1.37 1.12 2.49 2.49 2.49h2.03c1.37 0 2.49-1.12 2.49-2.49v-2.03c0-1.37-1.12-2.49-2.49-2.49Zm.49 4.51c0 .27-.22.49-.49.49H6.9a.49.49 0 0 1-.49-.49v-2.03c0-.27.22-.49.49-.49h2.03c.27 0 .49.22.49.49v2.03Z"/>
  </g>
  <defs>
    <clipPath id="a">
      <path fill="currentColor" d="M0 0h24v24H0z"/>
    </clipPath>
  </defs>
</svg>
