<svg xmlns="http://www.w3.org/2000/svg" width="24" height="24" fill="none" viewBox="0 0 24 24">
  <g clip-path="url(#a)">
    <path fill="currentColor" d="M20.91 3.81 13.11.84a3.17 3.17 0 0 0-2.23 0L3.09 3.81c-1.2.46-2.01 1.63-2.01 2.92V20.4c0 1.72 1.4 3.12 3.12 3.12h15.6c1.72 0 3.12-1.4 3.12-3.12V6.73c0-1.29-.81-2.46-2.01-2.92Zm-10.14 13.8c0 1.01-.82 1.84-1.84 1.84H7.15c-1.01 0-1.84-.82-1.84-1.84v-1.78c0-1.01.82-1.84 1.84-1.84h1.78c1.01 0 1.84.82 1.84 1.84v1.78Zm0-7.54c0 1.01-.82 1.84-1.84 1.84H7.15c-1.01 0-1.84-.82-1.84-1.84V8.29c0-1.01.82-1.84 1.84-1.84h1.78c1.01 0 1.84.82 1.84 1.84v1.78Zm7.92 7.54c0 1.01-.82 1.84-1.84 1.84h-1.78c-1.01 0-1.84-.82-1.84-1.84v-1.78c0-1.01.82-1.84 1.84-1.84h1.78c1.01 0 1.84.82 1.84 1.84v1.78Zm0-7.54c0 1.01-.82 1.84-1.84 1.84h-1.78c-1.01 0-1.84-.82-1.84-1.84V8.29c0-1.01.82-1.84 1.84-1.84h1.78c1.01 0 1.84.82 1.84 1.84v1.78Z"/>
  </g>
  <defs>
    <clipPath id="a">
      <path fill="currentColor" d="M0 0h24v24H0z"/>
    </clipPath>
  </defs>
</svg>
