<svg xmlns="http://www.w3.org/2000/svg" width="24" height="24" fill="none" viewBox="0 0 24 24">
  <g clip-path="url(#a)">
    <path fill="currentColor" d="M15.84.48H8.15C3.92.48.48 3.92.48 8.16v7.69c0 4.23 3.44 7.67 7.67 7.67h7.69c4.23 0 7.67-3.44 7.67-7.67V8.16c0-4.23-3.44-7.67-7.67-7.67V.48ZM12 5.58c2.23 0 4.05 1.81 4.05 4.05 0 2.24-1.81 4.05-4.05 4.05-2.24 0-4.05-1.81-4.05-4.05 0-2.24 1.81-4.05 4.05-4.05Zm6.86 15.06c-.87.55-1.91.87-3.02.87H8.15a5.67 5.67 0 0 1-3.02-.87c-.43-.27-.6-.82-.42-1.3a7.773 7.773 0 0 1 2.76-3.63c.57-.41 1.59-.44 2.25-.18 1.45.56 3.09.56 4.54 0 .66-.25 1.68-.23 2.25.18 1.28.91 2.23 2.19 2.76 3.63.18.48.01 1.03-.42 1.3h.01Z"/>
  </g>
  <defs>
    <clipPath id="a">
      <path fill="currentColor" d="M0 0h24v24H0z"/>
    </clipPath>
  </defs>
</svg>
