<svg xmlns="http://www.w3.org/2000/svg" width="24" height="24" fill="none" viewBox="0 0 24 24">
  <g clip-path="url(#a)">
    <path fill="currentColor" d="M17.42 1.31H6.58C5 1.31 3.71 2.6 3.71 4.18V21.7c0 .37.2.71.53.88.33.17.72.15 1.03-.05L12 18.01l6.73 4.52a.995.995 0 0 0 1.03.05c.33-.17.53-.51.53-.88V4.17c0-1.58-1.29-2.87-2.87-2.87v.01Zm-2 7.41-3.34 3.71c-.2.22-.47.33-.74.33-.22 0-.44-.07-.63-.22l-1.93-1.56a1.002 1.002 0 1 1 1.26-1.56l1.19.96 2.71-3.01a.997.997 0 1 1 1.48 1.34v.01Z"/>
  </g>
  <defs>
    <clipPath id="a">
      <path fill="currentColor" d="M0 0h24v24H0z"/>
    </clipPath>
  </defs>
</svg>
