<svg xmlns="http://www.w3.org/2000/svg" width="24" height="24" fill="none" viewBox="0 0 24 24">
  <g clip-path="url(#a)">
    <path fill="currentColor" d="M17.42 1.31H6.58C5 1.31 3.71 2.6 3.71 4.18V21.7c0 .37.2.71.53.88.33.17.72.15 1.03-.05L12 18.01l6.73 4.52a.995.995 0 0 0 1.03.05c.33-.17.53-.51.53-.88V4.17c0-1.58-1.29-2.87-2.87-2.87v.01Zm.87 18.51-5.73-3.85c-.17-.11-.36-.17-.56-.17-.2 0-.39.06-.56.17l-5.73 3.85V4.17c0-.48.39-.87.87-.87h10.85c.48 0 .87.39.87.87v15.65h-.01Z"/>
    <path fill="currentColor" d="M14.92 8.85H13V6.93c0-.55-.45-1-1-1s-1 .45-1 1v1.92H9.08c-.55 0-1 .45-1 1s.45 1 1 1H11v1.92c0 .55.45 1 1 1s1-.45 1-1v-1.92h1.92c.55 0 1-.45 1-1s-.45-1-1-1Z"/>
  </g>
  <defs>
    <clipPath id="a">
      <path fill="currentColor" d="M0 0h24v24H0z"/>
    </clipPath>
  </defs>
</svg>
